<svg id="Layer_1" data-name="Layer 1" xmlns="http://www.w3.org/2000/svg" viewBox="0 0 266 213"><defs><style>.cls-1{fill:#d6832b;}.cls-2{fill:#63656a;}.cls-3{fill:#559cb5;}</style></defs><title>thrivelogo</title><path class="cls-1" d="M69.5,124.7h1.6l6.7,14.8H76l-1.7-3.9h-8l-1.8,3.9H62.8Zm4.1,9.4-3.3-7.5-3.4,7.5Z"/><path class="cls-1" d="M85.9,124.8h1.7V138h8.3v1.5H86V124.8Z"/><path class="cls-1" d="M109.6,124.7h1.6l6.7,14.8h-1.8l-1.7-3.9h-8l-1.7,3.9H103Zm4.1,9.4-3.3-7.5-3.4,7.5Z"/><path class="cls-1" d="M126,124.8h6.3a5.2,5.2,0,0,1,3.8,1.3,3,3,0,0,1,.9,2.4h0a3.59,3.59,0,0,1-2.3,3.4c1.8.5,3.1,1.5,3.1,3.6h0c0,2.5-2.1,4-5.3,4H126Zm6,6.5c2,0,3.4-.9,3.4-2.6h0c0-1.4-1.1-2.4-3.2-2.4h-4.5v5.1Zm.6,6.7c2.2,0,3.6-1,3.6-2.6h0c0-1.6-1.3-2.5-3.9-2.5h-4.6v5.2h4.9Z"/><path class="cls-1" d="M151.9,124.7h1.6l6.7,14.8h-1.8l-1.7-3.9h-8l-1.8,3.9h-1.7Zm4,9.4-3.3-7.5-3.4,7.5Z"/><path class="cls-1" d="M168.2,124.8h1.7l5.4,8,5.4-8h1.7v14.7h-1.7V127.6l-5.4,7.9h-.1l-5.4-7.9v11.9h-1.6Z"/><path class="cls-1" d="M197.2,124.7h1.6l6.7,14.8h-1.8l-1.7-3.9h-8l-1.7,3.9h-1.7Zm4.1,9.4-3.3-7.5-3.4,7.5Z"/><path class="cls-2" d="M153.5,61.7a4.9,4.9,0,1,1-4.9-4.9h0A4.91,4.91,0,0,1,153.5,61.7Z"/><path class="cls-1" d="M148.4,45.2a2.22,2.22,0,0,1-2.2-2.2h0V39.4a2.2,2.2,0,0,1,4.4,0V43a2.16,2.16,0,0,1-2.2,2.2Zm0-10.9a2.22,2.22,0,0,1-2.2-2.2h0V28.5a2.2,2.2,0,0,1,4.4,0v3.6a2.22,2.22,0,0,1-2.2,2.2Z"/><path class="cls-1" d="M181.6,63.8H178a2.2,2.2,0,1,1,0-4.4h3.6a2.2,2.2,0,1,1,0,4.4Zm-10.9,0H167a2.2,2.2,0,1,1,0-4.4h3.6a2.22,2.22,0,0,1,2.2,2.2,2.14,2.14,0,0,1-2.1,2.2Z"/><path class="cls-1" d="M129.8,63.8h-3.6a2.2,2.2,0,0,1,0-4.4h3.6a2.22,2.22,0,0,1,2.2,2.2A2.16,2.16,0,0,1,129.8,63.8Zm-10.9,0h-3.6a2.2,2.2,0,0,1,0-4.4h3.6a2.22,2.22,0,0,1,2.2,2.2A2.16,2.16,0,0,1,118.9,63.8Z"/><path class="cls-1" d="M161.6,50.7a2.14,2.14,0,0,1-2.1-2.2,1.82,1.82,0,0,1,.6-1.4l2.6-2.6a2.2,2.2,0,0,1,3,.4,2.1,2.1,0,0,1,0,2.6l-2.6,2.6A3.39,3.39,0,0,1,161.6,50.7Zm7.7-7.7a2.22,2.22,0,0,1-2.2-2.2,2,2,0,0,1,.6-1.5l2.6-2.6a2.16,2.16,0,1,1,3.6,2.4,3.39,3.39,0,0,1-.6.6l-2.6,2.6a1.75,1.75,0,0,1-1.4.7Z"/><path class="cls-1" d="M135.2,50.7a2,2,0,0,1-1.5-.6l-2.6-2.6a2.18,2.18,0,0,1,.4-3,2.1,2.1,0,0,1,2.6,0l2.6,2.5a2.3,2.3,0,0,1,0,3.1,1.89,1.89,0,0,1-1.5.6ZM127.6,43a2,2,0,0,1-1.5-.6l-2.6-2.6a2.13,2.13,0,0,1,.6-3,2.11,2.11,0,0,1,2.4,0l2.6,2.6a2.18,2.18,0,0,1,0,3,3.17,3.17,0,0,1-1.5.6Z"/><path class="cls-2" d="M47.1,64.2,47,73.8H58.1v5.3H47V92.8c0,7.2.9,9.7,6.3,9.7a8.19,8.19,0,0,0,4.1-1.2h1.4v4.4s-2.9,3.5-9.4,3.5A10.63,10.63,0,0,1,38.5,98.8V79.2h-7V74.6c7.1,0,9.1-2,9.1-10.4Z"/><path class="cls-2" d="M75.3,76.9a20.79,20.79,0,0,1,11.5-3.8c8.4,0,11.9,5.6,11.9,14.2v14.1c0,1.6.3,2.2,4.3,2.2v4.6s-5.3-.2-8.8-.2l-9.5.2v-4.6c3.6,0,5.4-1.1,5.4-5.3V90c0-6.3-.5-9.9-6.6-9.9a31.93,31.93,0,0,0-8.2,1.3c-.1,7.7.2,19.4.2,19.4,0,1.8,0,2.8,4.4,2.8v4.6s-4.1-.2-7.9-.2l-9.8.2v-4.6c3.7,0,5-1.2,5-5.3,0-2.8.2-11,.2-19.1,0-9.6-.2-21.3-.2-21.3,0-3-2.6-3-5-3V50.6a75.4,75.4,0,0,0,11.6-.8h1.8C75.5,49.8,75.3,68,75.3,76.9Z"/><path class="cls-2" d="M106.8,73.8a57.32,57.32,0,0,0,10.1-.8l2.1,3.4c.4,0,4.6-3.7,9.6-3.7a16.68,16.68,0,0,1,7.6,1.5v9.5h-6.8V82.3c0-2.4-1.8-3.1-3.7-3.1a8.56,8.56,0,0,0-4.6,1.4V99.4c.1,3.3,0,4.1,6.2,4.1v4.6s-7.1-.2-9.6-.2l-10.9.2v-4.6c4.3,0,5.9-2,5.8-5.8,0,0,.2-2.6.2-6.4s-.2-9.7-.2-9.7c0-3.5-2.3-3.7-5.8-3.7Z"/><path class="cls-2" d="M139.6,73.8c8.7,0,12-.8,12-.8h2.3s.1,7.2.1,8.7l.1,18.7c0,2.3.2,3.1,7.2,3.1v4.6s-8.2-.3-10.8-.3-11.2.3-11.2.3v-4.6c4.3,0,6.7-1.2,6.7-4.5V81.5c-.1-3.5-3.3-3.5-6.3-3.5Z"/><path class="cls-2" d="M160.1,73.8s4.7.3,7.5.2,8.8-.2,8.8-.2v4.6c-2.9,0-4.4.8-3.4,3.4a182.16,182.16,0,0,0,7.9,18.8c1.9-4.1,6.2-14.9,7.1-19.1.4-2.3-.3-3.1-4-3.1V73.8s5.3.2,7.9.2,6.7-.2,6.7-.2v4.6c-1.6,0-2.1.5-3,2.4-.1.2-11.5,27.3-11.5,27.3-1.3-.1-2.7-.2-4-.2a41.66,41.66,0,0,0-4.4.2s-11.9-26.2-12.6-27.6-1.2-2.1-3-2.1Z"/><path class="cls-2" d="M232.4,92H208.3v.8c.4,7.4,4.4,10.5,10.2,10.5a15.83,15.83,0,0,0,10.1-4h2.1l-.1,6.2s-5.2,3.7-13.9,3.7c-12.3,0-17-7.9-17-17.4,0-14.5,10.9-19,17.4-19,12.7,0,15.2,9.3,15.2,16.6V92Zm-8.5-5.2c.2-2.7-1.1-8.8-7-8.8-6.5,0-8.1,7.2-8.1,8.8Z"/><path class="cls-2" d="M228.1,111.3v-1h.6c.4,0,.6.2.6.5s-.2.5-.6.5Zm1.5-.5c0-.5-.3-.8-.9-.8h-.9v2.2h.3v-.7h.7l.5.7h.3l-.5-.8a.56.56,0,0,0,.5-.6m-.9,2.3a1.85,1.85,0,0,1,.1-3.7,1.79,1.79,0,0,1,1.8,1.8,2,2,0,0,1-1.9,1.9h0m0-4a2.2,2.2,0,0,0-2.2,2.1,2.27,2.27,0,0,0,2.1,2.2,2.2,2.2,0,0,0,2.2-2.1h0a2.14,2.14,0,0,0-2.1-2.2"/><path class="cls-3" d="M7.2,175.7c0,1.8,1.7,2.7,4.4,2.9,2.1-5,5.1-11.2,6.9-13.4a4.8,4.8,0,0,1,2.5-1.4.22.22,0,0,1,.2.2v.1c0,.2-.5.6-1.1,1.4a81.34,81.34,0,0,0-6.6,13.2A70.91,70.91,0,0,0,24.8,177a69.06,69.06,0,0,1,8.4-15.3,6.19,6.19,0,0,1,2.8-1.4.22.22,0,0,1,.2.2h0a10.13,10.13,0,0,1-1.4,2,76.74,76.74,0,0,0-7.6,14.1h.6c1.8,0,2.5.4,2.5.7a.56.56,0,0,1-.5.6,5.42,5.42,0,0,0-2.5-.6.9.9,0,0,0-.5.1,32.89,32.89,0,0,0-2.7,11.5c0,4.3,1.4,6.2,4.1,6.2a3.84,3.84,0,0,0,2.5-.9.22.22,0,0,1,.2.2c0,.2-1.1,1.4-3.2,1.4-2.8,0-5.8-2.2-5.8-7.3a35.31,35.31,0,0,1,2.3-10.6A108.92,108.92,0,0,1,12.8,180a36.27,36.27,0,0,0-2.1,6.6.43.43,0,0,1-.4.4,1.72,1.72,0,0,1-1.2-1.5,21.87,21.87,0,0,1,1.7-5.5c-3.3-.1-5.8-1.3-5.8-3.8a4,4,0,0,1,3-3.4c.2,0,.3.1.3.2A4.2,4.2,0,0,0,7.2,175.7Z"/><path class="cls-3" d="M45.3,178l.2-.2a.22.22,0,0,1,.2.2c0,.1-.1.2-.2.3-2,2.6-8.2,7.8-12.3,7.8-1.7,0-3.4-.9-3.4-2.8,0-4.2,7.3-9.9,10.2-9.9a1.13,1.13,0,0,1,1.1,1.2h0c0,2-4.4,5.2-8.1,6.1a6.22,6.22,0,0,0-.9,2.6,1.55,1.55,0,0,0,1.3,1.7h.3C38,185,43.2,180.4,45.3,178Zm-11.8,2.1c3.3-1.2,7.1-3.9,7.1-5.7a.27.27,0,0,0-.3-.3c-1.5,0-5,3.1-6.8,6Z"/><path class="cls-3" d="M55.5,175.4c0,.3-.5.6-.7.6s-.1-1-2-1c-3.3,0-9.7,6.4-9.7,9.8a.46.46,0,0,0,.4.5c1.1,0,5.2-4,6.5-5.4s2.1-2.1,2.6-2.1a1,1,0,0,1,.7.7,14,14,0,0,0-.6,2.8c0,1.2.6,2.4,2,2.4,3,0,6.7-3.9,8.5-5.7l.2-.2a.22.22,0,0,1,.2.2c0,.1-.1.2-.2.3-1.9,2.4-6,6.5-9.6,6.5-2.1,0-3.5-1.2-3.5-2.7,0-.5.1-1.6.1-1.6-1.3,1.4-5.9,6.1-8.3,6.1a1.69,1.69,0,0,1-1.7-1.7v-.1c0-3.9,8.1-10.6,13-10.6C54.5,174.3,55.5,174.9,55.5,175.4Z"/><path class="cls-3" d="M86.9,168.7c0,.7-2.2,2.1-7.5,2.3-1.1.1-2,.1-2.8.1-.6,1.1-1.3,2.2-1.9,3.5-2.7,5.3-4.3,8.6-4.3,12a6.74,6.74,0,0,0,1,3.4c0,.2-.2.3-.4.3a5.59,5.59,0,0,1-2.2-4.4,13.2,13.2,0,0,1,.6-3.9c-1.5,2-3.9,4.3-5.5,4.3-1,0-2-.7-2-2.6,0-6.6,4.6-12.9,8.7-18.6a6.73,6.73,0,0,1,1.4-1.5,4.28,4.28,0,0,1,1.6-.5.32.32,0,0,1,.3.3,6.57,6.57,0,0,1-1.2,1.7c-4.3,6.6-9,12.7-9,18.8,0,.9.4,1.3,1,1.3,1.4,0,4.6-3.8,5.4-5.1a62.86,62.86,0,0,1,3.2-7,19.83,19.83,0,0,1,1.1-2,15.94,15.94,0,0,0-3,.6l-.3-.3c0-.6,1.7-.8,3.7-1,1.9-3.2,3.8-5.7,4.5-6.1a4.55,4.55,0,0,1,1.9-.8.32.32,0,0,1,.3.3c0,.4-2,2.6-4.4,6.5a17.73,17.73,0,0,1,2.2-.1c6.1-.6,7-2.2,7.2-2.2S86.9,168.5,86.9,168.7Z"/><path class="cls-3" d="M87.2,181.8c0-2.4,2.7-5.1,2.7-6a.22.22,0,0,0-.2-.2h0c-1,0-6.9,6-8.9,8.6s-2.8,3.4-3.3,3.4a.87.87,0,0,1-.8-.6,1.85,1.85,0,0,1,.2-.7c6.2-15.9,11.8-23.2,15.1-23.2.3,0,.4.1.4.2s-.2.4-.5.4h-.5c-1.9,0-10.2,17.2-11,19.9,2.2-2.4,7.7-9,10.3-9a1.32,1.32,0,0,1,1.4,1.2v.1c0,1.2-2,4.2-2,6.6,0,.6.3,1,.8,1,2.3,0,5.3-3.6,7.1-5.4l.2-.2c.1,0,.1.1.2.2s-.1.2-.2.3c-1.9,2.4-5,6-7.8,6C88.5,184.3,87.2,183.4,87.2,181.8Z"/><path class="cls-3" d="M111.6,178l.2-.2c.1,0,.1.1.2.2s-.1.2-.2.3c-1.9,2.4-8.4,8.4-13.6,8.4a3,3,0,0,1-3.3-2.7v-.3c0-4.7,6.9-10.1,11.3-10.1a1.34,1.34,0,0,1,1.5,1.2v.1a2.23,2.23,0,0,1-1,1.8c-.1,0-.3-.1-.3-.2h0c0-.2.6-.7.6-1.5a.65.65,0,0,0-.6-.6h-.1c-2.9,0-8.8,5.3-8.8,9.5,0,1.2.6,1.8,1.6,1.8C103.4,185.6,109.8,179.9,111.6,178Z"/><path class="cls-3" d="M121.8,175.4c0,.3-.5.6-.7.6s-.1-1-2-1c-3.3,0-9.7,6.4-9.7,9.8a.46.46,0,0,0,.4.5c1.1,0,5.2-4,6.5-5.4s2-2.1,2.6-2.1a.75.75,0,0,1,.6.7,14,14,0,0,0-.6,2.8c0,1.2.6,2.4,2,2.4,3,0,6.7-3.9,8.5-5.7.1-.1.1-.2.2-.2a.22.22,0,0,1,.2.2c0,.1-.1.2-.2.3-1.9,2.4-6,6.5-9.6,6.5-2.1,0-3.5-1.2-3.5-2.7,0-.5.1-1.6.1-1.6-1.3,1.4-5.9,6.1-8.3,6.1a1.69,1.69,0,0,1-1.7-1.7v-.1c0-3.9,8.1-10.6,13-10.6C120.8,174.3,121.8,174.9,121.8,175.4Z"/><path class="cls-3" d="M130.6,172.2a2.63,2.63,0,0,1,1.5,2.6,10.47,10.47,0,0,1-.5,3c1.4-2.1,4.9-6.8,8.2-6.8,1,0,1.5.5,1.5.9s-.7,1.2-1,1.2-.4-.6-1.5-.6c-3,0-6.2,4.8-7.7,7.3a51.25,51.25,0,0,0-2.5,5.3,3.81,3.81,0,0,1-1.7.8.51.51,0,0,1-.5-.4h0c0-.3,1-2.5,2.4-5.7s1.8-4.5,1.8-5.7a4.53,4.53,0,0,0-.3-1.6C130.3,172.3,130.4,172.1,130.6,172.2Z"/><path class="cls-3" d="M152.6,178l.2-.2c.1,0,.2.1.1.2s-.1.2-.2.3c-2,2.6-8.2,7.8-12.3,7.8-1.7,0-3.4-.9-3.4-2.8,0-4.2,7.3-9.9,10.2-9.9a1.13,1.13,0,0,1,1.1,1.2h0c0,2-4.4,5.2-8.1,6.1a6.22,6.22,0,0,0-.9,2.6,1.48,1.48,0,0,0,1.3,1.7h.4C145.3,185,150.5,180.4,152.6,178Zm-11.8,2.1c3.3-1.2,7.1-3.9,7.1-5.7a.27.27,0,0,0-.3-.3c-1.5,0-5,3.1-6.8,6Z"/><path class="cls-3" d="M171.4,173.1c0,.2-1.9.9-6.1,1.5l-1.2,2.4c-3.5,7.2-4.9,12.5-5.3,12.5s-.9-.6-.9-1.4,1.1-4.9,4.5-11.7l.7-1.5c-1.6.3-2,.5-2.2.5a.32.32,0,0,1-.3-.3c0-.2.5-.5,2.9-.9,3.4-6.2,6.8-9.7,10.8-9.7.5,0,1,.2,1,.4s-.7.5-.9.5a2.77,2.77,0,0,0-.9-.1c-2.8,0-5,3.5-7.7,8.6a21.52,21.52,0,0,0,5.4-1.4A2,2,0,0,1,171.4,173.1Z"/><path class="cls-3" d="M184.3,177.8c1.3-2.1,4.1-6.1,7.4-6.1,1,0,1.5.5,1.5.9a2.26,2.26,0,0,1-.9,1.2c-.2,0-.4-.6-1.5-.6-3,0-5.5,4.1-7,6.5a51.25,51.25,0,0,0-2.5,5.3,3.81,3.81,0,0,1-1.7.8.51.51,0,0,1-.5-.4h0c0-.3,1-2.5,2.4-5.7s1.9-4.7,1.9-5.9a1.58,1.58,0,0,0-1.8-1.6,11.05,11.05,0,0,0-4.3,1.5,3,3,0,0,1,.8,2c0,4.6-5.7,10-9.8,10a2.48,2.48,0,0,1-2.6-2.4V183c0-4.7,6.5-8.4,8-8.4.2,0,.4,0,.4.2s-.2.2-.5.4c-1.9,1.2-5.9,4.5-5.9,8.2,0,.9.5,1.6,1.2,1.6,2.5,0,7.2-4.1,7.2-9.1,0-1.4-.6-1.4-.6-1.8s4.2-2.7,6.8-2.7c1.8,0,3,.8,3,2.4A13.82,13.82,0,0,1,184.3,177.8Z"/><path class="cls-3" d="M210.5,190.6c-4.6,8.3-9.9,15-15.3,15-3.3,0-6.1-2.2-6.1-5.1,0-5.9,9.6-9.9,19.2-10.5a93.82,93.82,0,0,0,6.3-12.2c-3.5,4.4-8.8,9.7-13.5,9.7a3.64,3.64,0,0,1-3.8-3.3v-.6c0-6.4,7-15.1,8.4-17s2.8-2.5,3.4-2.5c.3,0,.5.1.5.4s-10.2,13.1-10.2,19.5a2.19,2.19,0,0,0,2,2.5h.5c3.5,0,10-6,13.1-10.5.9-1.2,4.9-10.3,7.2-10.3a.27.27,0,0,1,.3.3h0c0,.4-1,1-2.2,3.7-2.7,6-5.9,13.5-9.6,20.2h.1c3,0,4.1,1.1,4.1,1.3a.88.88,0,0,1-.7.6C214,191.8,213.5,190.6,210.5,190.6Zm-2.6.1c-8.7.6-17.3,4.5-17.3,10.3,0,1.9.9,3.3,3.6,3.3,4.2.1,9.5-6.7,13.7-13.6Z"/><path class="cls-3" d="M247.2,184.2c.5,0,.8.2.8,1.2a1.06,1.06,0,0,1-1,1.2.79.79,0,0,1-.8-.8h0C246.2,185.2,246.6,184.2,247.2,184.2Zm1.2-2.1c0-.9,1.7-4.6,3.5-8.1,2.3-4.5,4.8-9.2,6.1-9.2.3,0,.7.5.7.8s-2.8,4.4-5.3,8.7c-2.2,3.8-4.3,8.1-4.7,8.1a.22.22,0,0,1-.3-.3Z"/><path class="cls-3" d="M243.8,185.4c-1-.5-1.1-1.5-1.1-2.8a23.52,23.52,0,0,1,1-5.9.87.87,0,0,0-.8-.6c-.5,0-.8.6-2.3,2.8a30.4,30.4,0,0,1-1.8,2.5c-1.9,2.5-4,5-5.1,5h-.2a.68.68,0,0,1-.7-.7h0c0-2.1,4.9-7,4.9-10.9a2,2,0,0,0-.7-1.6,1.27,1.27,0,0,0-.9-.4,4.33,4.33,0,0,1-.5-.1c-2.6,0-5.3,1.3-5.8,1.3-.3,0-.9-1-1.4-1s-1.3.4-1.3.8c0,.7,1.4,1.2,1.4,2,0,5-5.1,10.1-7.6,10.1-.7,0-1.2-.6-1.2-1.6,0-3.8,4.7-7.7,6.6-8.9.3-.2.5-.3.5-.4s-.2-.2-.4-.2c-1.5,0-8.7,4.4-8.7,9.2a2.48,2.48,0,0,0,2.3,2.7h.3c4.2,0,9.9-6.8,9.9-11.5,1.9-1.2,3.1-1.8,5-1.8a1.05,1.05,0,0,1,.9.5,1.06,1.06,0,0,1,.1.8c0,3.3-5.9,8-5.9,11.1a2.2,2.2,0,0,0,2.1,2.2h.2c2.5,0,6.7-6,7.9-7.8a8.52,8.52,0,0,0-.3,2.3h0c0,2.3,1.4,3.5,3,3.5.3,0,.7-.1.7-.3S244,185.5,243.8,185.4Z"/></svg>